<svg width="137" height="130" viewBox="0 0 137 130" fill="none" xmlns="http://www.w3.org/2000/svg">
<rect x="61" y="31.5" width="15" height="97" rx="2" stroke="#333333" stroke-width="2"/>
<path d="M60.5 33.5C43.2034 15.723 6.97764 19.6451 4.17285 19.9788C4.04456 19.9941 3.9349 19.998 3.80597 20.0062C2.23954 20.1062 1 21.4084 1 23V111C1 112.657 2.34315 114 4 114C5.65685 114 41.5 110.304 61 128" stroke="#333333" stroke-width="2"/>
<path d="M132.753 20.2214L132.921 19.2356L132.921 19.2356L132.753 20.2214ZM79.2167 32.6974C78.8316 33.0932 78.1985 33.1019 77.8026 32.7168C77.4068 32.3316 77.3981 31.6985 77.7833 31.3027L79.2167 32.6974ZM133.275 20.2772L133.185 21.2731L133.185 21.2731L133.275 20.2772ZM132.585 21.2072C131.013 20.9393 121.823 19.4948 110.918 20.2983C99.9829 21.104 87.5276 24.1557 79.2167 32.6974L77.7833 31.3027C86.6072 22.2336 99.6687 19.1217 110.771 18.3037C121.905 17.4833 131.274 18.9549 132.921 19.2356L132.585 21.2072ZM75.328 127.259C85.3145 118.197 99.4094 114.731 111.086 113.502C122.754 112.274 132.314 113.265 133 113.265V115.265C132.029 115.265 122.839 114.276 111.296 115.491C99.7622 116.705 86.1855 120.107 76.672 128.741L75.328 127.259ZM135 111.265V23.2647H137V111.265H135ZM133 113.265C134.105 113.265 135 112.369 135 111.265H137C137 113.474 135.209 115.265 133 115.265V113.265ZM133.366 19.2813C135.404 19.4668 137 21.1789 137 23.2647H135C135 22.2226 134.202 21.3657 133.185 21.2731L133.366 19.2813ZM132.921 19.2356C133.051 19.2577 133.14 19.2607 133.366 19.2813L133.185 21.2731C133.046 21.2604 132.817 21.2467 132.585 21.2072L132.921 19.2356Z" fill="#333333"/>
<path d="M68 31C68 31 64.1018 4.19987 22.6329 1.10824C21.6299 1.03346 20.6199 1.49087 20.3146 2.44922C19.5 5.00617 19.5 9.00002 19.5 9.00002" stroke="#333333" stroke-width="2"/>
<path d="M44.5 15C44.5 15 29.2268 7.84073 10.8047 9.37703C9.97342 9.44636 9.20956 9.87951 8.87817 10.6451C7.61177 13.5706 6.5 19.5 6.5 19.5" stroke="#333333" stroke-width="2" stroke-linecap="round"/>
<path d="M69 31C69 31 72.8982 4.19987 114.367 1.10824C115.37 1.03346 116.38 1.49087 116.685 2.44922C117.5 5.00617 117.5 9.00002 117.5 9.00002" stroke="#333333" stroke-width="2"/>
<path d="M69.5 31C69.5 31 89.5407 6.56015 125.756 9.39251C126.545 9.45426 127.304 9.83114 127.691 10.5221C129.595 13.924 130 20 130 20" stroke="#333333" stroke-width="2"/>
<path d="M67 30.5C60.9755 24.1826 57.5 21.5 50 17.5" stroke="#333333" stroke-width="2" stroke-linecap="round"/>
<path d="M50 48.5C42 44 26.5 40 9 41.5776" stroke="#333333" stroke-width="2" stroke-linecap="round"/>
<path d="M50 58.4294C42 53.9294 26.5 49.9294 9 51.507" stroke="#333333" stroke-width="2" stroke-linecap="round"/>
<path d="M50 68.4294C42 63.9294 26.5 59.9294 9 61.507" stroke="#333333" stroke-width="2" stroke-linecap="round"/>
<path d="M87 51.0283C87 50.6976 87.1583 50.39 87.4364 50.2111C97.2991 43.8666 117.336 43.1042 122.01 43.0125C122.562 43.0017 123 43.4431 123 43.9953C123 46.3046 123 52.1604 123 56.501C123 57.0532 122.544 57.4996 121.992 57.504C103.784 57.6489 92.3752 61.6877 88.4912 63.3227C87.7996 63.6138 87 63.1055 87 62.3551C87 59.9168 87 55.1835 87 51.0283Z" fill="#333333"/>
<path d="M87 76.5284C87 76.1978 87.1583 75.89 87.4364 75.7111C97.2991 69.3666 117.336 68.6042 122.01 68.5125C122.562 68.5017 123 68.9461 123 69.4984C123 70.4279 123 72.0435 123 74.4985C123 75.0508 122.544 75.4996 121.992 75.5043C103.836 75.6599 92.4397 79.9853 88.5243 81.7556C87.8282 82.0703 87 81.5585 87 80.7945C87 79.6388 87 78.0502 87 76.5284Z" fill="#333333"/>
<path d="M88 98.1745L87.9999 92.0657C93.5609 88.8011 100.934 87.1192 107.542 86.2739C114.103 85.4345 119.802 85.4327 122 85.4731V85.4774V85.4848V85.4921V85.4995V85.5069V85.5144V85.5218V85.5293V85.5368V85.5444V85.5519V85.5595V85.5671V85.5748V85.5824V85.5901V85.5978V85.6055V85.6133V85.621V85.6288V85.6367V85.6445V85.6524V85.6603V85.6682V85.6761V85.6841V85.692V85.7001V85.7081V85.7161V85.7242V85.7323V85.7404V85.7486V85.7567V85.7649V85.7731V85.7814V85.7896V85.7979V85.8062V85.8145V85.8229V85.8312V85.8396V85.848V85.8565V85.8649V85.8734V85.8819V85.8904V85.899V85.9075V85.9161V85.9247V85.9334V85.942V85.9507V85.9594V85.9681V85.9769V85.9856V85.9944V86.0032V86.0121V86.0209V86.0298V86.0387V86.0476V86.0565V86.0655V86.0745V86.0835V86.0925V86.1016V86.1106V86.1197V86.1288V86.1379V86.1471V86.1563V86.1654V86.1747V86.1839V86.1931V86.2024V86.2117V86.221V86.2304V86.2397V86.2491V86.2585V86.2679V86.2774V86.2868V86.2963V86.3058V86.3153V86.3249V86.3344V86.344V86.3536V86.3632V86.3729V86.3825V86.3922V86.4019V86.4116V86.4214V86.4311V86.4409V86.4507V86.4605V86.4704V86.4802V86.4901V86.5V86.5099V86.5199V86.5298V86.5398V86.5498V86.5598V86.5699V86.5799V86.59V86.6001V86.6102V86.6203V86.6305V86.6406V86.6508V86.661V86.6713V86.6815V86.6918V86.7021V86.7124V86.7227V86.733V86.7434V86.7537V86.7641V86.7746V86.785V86.7954V86.8059V86.8164V86.8269V86.8374V86.848V86.8585V86.8691V86.8797V86.8903V86.9009V86.9116V86.9223V86.9329V86.9436V86.9544V86.9651V86.9759V86.9866V86.9974V87.0082V87.0191V87.0299V87.0408V87.0517V87.0625V87.0735V87.0844V87.0953V87.1063V87.1173V87.1283V87.1393V87.1504V87.1614V87.1725V87.1836V87.1947V87.2058V87.2169V87.2281V87.2393V87.2504V87.2617V87.2729V87.2841V87.2954V87.3066V87.3179V87.3292V87.3406V87.3519V87.3632V87.3746V87.386V87.3974V87.4088V87.4203V87.4317V87.4432V87.4547V87.4662V87.4777V87.4892V87.5008V87.5123V87.5239V87.5355V87.5471V87.5587V87.5704V87.582V87.5937V87.6054V87.6171V87.6288V87.6406V87.6523V87.6641V87.6759V87.6877V87.6995V87.7113V87.7232V87.735V87.7469V87.7588V87.7707V87.7826V87.7945V87.8065V87.8185V87.8304V87.8424V87.8544V87.8665V87.8785V87.8905V87.9026V87.9147V87.9268V87.9389V87.951V87.9632V87.9753V87.9875V87.9997V88.0119V88.0241V88.0363V88.0485V88.0608V88.0731V88.0853V88.0976V88.1099V88.1223V88.1346V88.147V88.1593V88.1717V88.1841V88.1965V88.2089V88.2214V88.2338V88.2463V88.2587V88.2712V88.2837V88.2962V88.3088V88.3213V88.3339V88.3464V88.359V88.3716V88.3842V88.3968V88.4095V88.4221V88.4348V88.4474V88.4601V88.4728V88.4855V88.4982V88.511V88.5237V88.5365V88.5493V88.562V88.5748V88.5876V88.6005V88.6133V88.6262V88.639V88.6519V88.6648V88.6777V88.6906V88.7035V88.7164V88.7294V88.7423V88.7553V88.7683V88.7813V88.7943V88.8073V88.8203V88.8334V88.8464V88.8595V88.8725V88.8856V88.8987V88.9118V88.925V88.9381V88.9512V88.9644V88.9776V88.9907V89.0039V89.0171V89.0303V89.0436V89.0568V89.07V89.0833V89.0966V89.1098V89.1231V89.1364V89.1497V89.163V89.1764V89.1897V89.2031V89.2164V89.2298V89.2432V89.2566V89.27V89.2834V89.2968V89.3103V89.3237V89.3372V89.3506V89.3641V89.3776V89.3911V89.4046V89.4181V89.4316V89.4452V89.4587V89.4723V89.4858V89.4994V89.513V89.5266V89.5402V89.5538V89.5674V89.5811V89.5947V89.6084V89.622V89.6357V89.6494V89.6631V89.6768V89.6905V89.7042V89.7179V89.7317V89.7454V89.7592V89.7729V89.7867V89.8005V89.8143V89.8281V89.8419V89.8557V89.8695V89.8834V89.8972V89.911V89.9249V89.9388V89.9527V89.9665V89.9804V89.9943V90.0082V90.0222V90.0361V90.05V90.064V90.0779V90.0919V90.1058V90.1198V90.1338V90.1478V90.1618V90.1758V90.1898V90.2038V90.2179V90.2319V90.2459V90.26V90.2741V90.2881V90.3022V90.3163V90.3304V90.3445V90.3586V90.3727V90.3868V90.4009V90.4151V90.4292V90.4434V90.4575V90.4717V90.4858V90.5V90.5142V90.5284V90.5426V90.5568V90.571V90.5852V90.5995V90.6137V90.6279V90.6422V90.6564V90.6707V90.6849V90.6992V90.7135V90.7278V90.7421V90.7563V90.7706V90.785V90.7993V90.8136V90.8279V90.8422V90.8566V90.8709V90.8853V90.8996V90.914V90.9284V90.9427V90.9571V90.9715V90.9859V91.0003V91.0147V91.0291V91.0435V91.0579V91.0723V91.0868V91.1012V91.1156V91.1301V91.1445V91.159V91.1735V91.1879V91.2024V91.2169V91.2313V91.2458V91.2603V91.2748V91.2893V91.3038V91.3183V91.3328V91.3474V91.3619V91.3764V91.3909V91.4055V91.42V91.4346V91.4491V91.4637V91.4747C121.999 91.4751 121.999 91.4756 121.998 91.4762C121.996 91.4788 121.992 91.4808 121.989 91.482C121.987 91.483 121.985 91.4835 121.981 91.4835C103.751 91.284 92.2292 96.1419 88.1361 98.2287C88.125 98.2344 88.1144 98.2368 88.0999 98.236C88.0827 98.2351 88.0604 98.2292 88.0387 98.2164C88.017 98.2036 88.0061 98.1901 88.0023 98.1839L88.0022 98.1838C88.0004 98.1807 88 98.18 88 98.1745Z" stroke="#333333" stroke-width="2"/>
<path d="M60.5 46.5H76.5" stroke="#333333" stroke-width="2"/>
<path d="M60 106.5H76" stroke="#333333" stroke-width="2"/>
<path d="M61 53.5H77" stroke="#333333" stroke-width="2"/>
<path d="M60.5 113.5H76.5" stroke="#333333" stroke-width="2"/>
<path d="M66 46.5H77V53.5H64L66 46.5Z" fill="#333333"/>
<path d="M65.5 106.5H76.5V113.5H63.5L65.5 106.5Z" fill="#333333"/>
<path d="M68.5 60.5V99.5" stroke="#333333" stroke-width="2" stroke-linecap="round"/>
</svg>
