<svg width="131" height="131" viewBox="0 0 131 131" fill="none" xmlns="http://www.w3.org/2000/svg">
<path fill-rule="evenodd" clip-rule="evenodd" d="M34.0953 119L103.036 130.831C105.758 131.298 108.343 129.47 108.81 126.748L127.076 20.3042C127.543 17.5826 125.716 14.9976 122.994 14.5306L100.189 10.6171V114C100.189 116.761 97.9503 119 95.1889 119H34.0953Z" fill="#333333"/>
<path d="M15.6888 11.5L10.6888 6" stroke="#333333" stroke-width="2" stroke-linecap="round"/>
<path d="M122.594 85.3652L129.752 83.3618" stroke="#333333" stroke-width="2" stroke-linecap="round"/>
<path d="M8.37772 30.2974L1 31.2026" stroke="#333333" stroke-width="2" stroke-linecap="round"/>
<path d="M118.802 105.175L124.572 109.861" stroke="#333333" stroke-width="2" stroke-linecap="round"/>
<path d="M15.6888 22.5H31.1888C35.0548 22.5 38.1888 19.366 38.1888 15.5V7.5" stroke="#333333" stroke-width="2" stroke-linecap="round"/>
<path d="M28.3678 42.6786V44.0576H29.3331C29.5599 44.0576 29.7208 44.1021 29.8158 44.191C29.9138 44.2768 29.9629 44.3901 29.9629 44.5311C29.9629 44.669 29.9138 44.7824 29.8158 44.8713C29.7208 44.9571 29.5599 45 29.3331 45H27.2783C27.0515 45 26.8891 44.9571 26.791 44.8713C26.696 44.7824 26.6485 44.6675 26.6485 44.5265C26.6485 44.3886 26.6976 44.2768 26.7956 44.191C26.8937 44.1021 27.0546 44.0576 27.2783 44.0576H27.4254V40.371H27.2783C27.0515 40.371 26.8891 40.3281 26.791 40.2422C26.696 40.1534 26.6485 40.0384 26.6485 39.8975C26.6485 39.7565 26.696 39.6431 26.791 39.5573C26.8891 39.4684 27.0515 39.424 27.2783 39.424L31.7143 39.4286V40.8674C31.7143 41.0911 31.6698 41.252 31.581 41.3501C31.4952 41.4451 31.3818 41.4926 31.2408 41.4926C31.1029 41.4926 30.9895 41.4451 30.9006 41.3501C30.8148 41.2551 30.7719 41.0942 30.7719 40.8674V40.371H28.3678V41.7362H29.1952C29.1952 41.4911 29.2182 41.3332 29.2641 41.2627C29.3591 41.1126 29.494 41.0375 29.6687 41.0375C29.8066 41.0375 29.9184 41.0865 30.0042 41.1846C30.0931 41.2796 30.1376 41.4405 30.1376 41.6673V42.7521C30.1376 42.9789 30.0931 43.1413 30.0042 43.2394C29.9184 43.3344 29.805 43.3819 29.6641 43.3819C29.4925 43.3819 29.3591 43.3068 29.2641 43.1567C29.2182 43.0862 29.1952 42.9268 29.1952 42.6786H28.3678ZM35.0056 39.0379V40.0354H33.884V39.0379H35.0056ZM35.1343 40.826V44.0576H36.2652C36.492 44.0576 36.6528 44.1021 36.7478 44.191C36.8459 44.2768 36.8949 44.3901 36.8949 44.5311C36.8949 44.669 36.8459 44.7824 36.7478 44.8713C36.6528 44.9571 36.492 45 36.2652 45H33.0612C32.8344 45 32.672 44.9571 32.5739 44.8713C32.4789 44.7824 32.4314 44.6675 32.4314 44.5265C32.4314 44.3886 32.4789 44.2768 32.5739 44.191C32.672 44.1021 32.8344 44.0576 33.0612 44.0576H34.192V41.7684H33.4335C33.2098 41.7684 33.0489 41.7255 32.9508 41.6397C32.8528 41.5508 32.8037 41.4359 32.8037 41.2949C32.8037 41.157 32.8512 41.0452 32.9462 40.9594C33.0443 40.8705 33.2067 40.826 33.4335 40.826H35.1343ZM40.1265 40.826V41.4144C40.5219 41.1294 40.8329 40.9394 41.0597 40.8444C41.2896 40.7494 41.5041 40.7019 41.7033 40.7019C42.0097 40.7019 42.307 40.8153 42.5951 41.0421C42.7912 41.1953 42.8893 41.3516 42.8893 41.511C42.8893 41.6458 42.8418 41.7607 42.7468 41.8557C42.6548 41.9477 42.543 41.9936 42.4112 41.9936C42.2947 41.9936 42.1721 41.9354 42.0434 41.819C41.9147 41.7025 41.7998 41.6443 41.6987 41.6443C41.5669 41.6443 41.3692 41.727 41.1057 41.8925C40.8452 42.058 40.5188 42.3062 40.1265 42.6372V44.0576H41.4688C41.6956 44.0576 41.8565 44.1021 41.9515 44.191C42.0496 44.2768 42.0986 44.3901 42.0986 44.5311C42.0986 44.669 42.0496 44.7824 41.9515 44.8713C41.8565 44.9571 41.6956 45 41.4688 45H38.6234C38.3966 45 38.2342 44.9571 38.1361 44.8713C38.0411 44.7824 37.9936 44.6675 37.9936 44.5265C37.9936 44.3886 38.0411 44.2768 38.1361 44.191C38.2342 44.1021 38.3966 44.0576 38.6234 44.0576H39.1842V41.7684H38.844C38.6172 41.7684 38.4548 41.7255 38.3567 41.6397C38.2617 41.5508 38.2142 41.4359 38.2142 41.2949C38.2142 41.157 38.2617 41.0452 38.3567 40.9594C38.4548 40.8705 38.6172 40.826 38.844 40.826H40.1265ZM46.9943 41.9293C46.841 41.8343 46.6801 41.7638 46.5116 41.7178C46.343 41.6688 46.1668 41.6443 45.983 41.6443C45.6183 41.6443 45.3287 41.704 45.1141 41.8236C45.0191 41.8757 44.9716 41.9324 44.9716 41.9936C44.9716 42.0641 45.036 42.1331 45.1647 42.2005C45.2628 42.2495 45.4819 42.297 45.8221 42.343C46.4472 42.4288 46.8824 42.5146 47.1276 42.6004C47.4494 42.7138 47.6976 42.8824 47.8723 43.1061C48.0469 43.3298 48.1343 43.5658 48.1343 43.814C48.1343 44.1511 47.9857 44.4331 47.6884 44.6598C47.2624 44.9877 46.7093 45.1517 46.0289 45.1517C45.7562 45.1517 45.5033 45.1272 45.2704 45.0781C45.0406 45.0322 44.8291 44.9632 44.6361 44.8713C44.5901 44.9111 44.5411 44.9418 44.489 44.9632C44.4369 44.9847 44.3832 44.9954 44.3281 44.9954C44.181 44.9954 44.063 44.9479 43.9741 44.8529C43.8883 44.7548 43.8454 44.5924 43.8454 44.3656V44.0484C43.8454 43.8217 43.8883 43.6608 43.9741 43.5658C44.063 43.4677 44.1779 43.4187 44.3189 43.4187C44.4323 43.4187 44.5273 43.4509 44.6039 43.5152C44.6805 43.5765 44.7403 43.6838 44.7832 43.837C44.9272 43.9596 45.1004 44.053 45.3026 44.1174C45.5049 44.1787 45.7378 44.2093 46.0013 44.2093C46.4334 44.2093 46.769 44.1419 47.0081 44.0071C47.1214 43.9397 47.1781 43.8692 47.1781 43.7956C47.1781 43.673 47.0969 43.5719 46.9345 43.4922C46.7721 43.4125 46.4365 43.3451 45.9278 43.29C45.1708 43.2103 44.6652 43.0571 44.4108 42.8303C44.1565 42.6066 44.0293 42.3308 44.0293 42.0028C44.0293 41.6657 44.1718 41.3853 44.4568 41.1616C44.8429 40.8552 45.3486 40.7019 45.9738 40.7019C46.1913 40.7019 46.3997 40.7234 46.5989 40.7663C46.8012 40.8061 46.9943 40.8689 47.1781 40.9548C47.2364 40.9119 47.29 40.8797 47.339 40.8582C47.3911 40.8368 47.4386 40.826 47.4815 40.826C47.6102 40.826 47.7175 40.8751 47.8033 40.9731C47.8891 41.0681 47.932 41.229 47.932 41.4558V41.6857C47.932 41.891 47.9075 42.0304 47.8585 42.104C47.7604 42.2449 47.6271 42.3154 47.4585 42.3154C47.3452 42.3154 47.2456 42.2802 47.1597 42.2097C47.0739 42.1392 47.0188 42.0457 46.9943 41.9293ZM51.3981 41.7684V43.6577C51.3981 43.86 51.4394 43.9933 51.5222 44.0576C51.6509 44.1588 51.8807 44.2093 52.2117 44.2093C52.6928 44.2093 53.1372 44.1067 53.5448 43.9013C53.7011 43.8217 53.8237 43.7818 53.9125 43.7818C54.0351 43.7818 54.1409 43.8278 54.2297 43.9197C54.3217 44.0117 54.3676 44.1235 54.3676 44.2553C54.3676 44.3779 54.3186 44.4836 54.2205 44.5725C54.0704 44.7165 53.7731 44.8498 53.3287 44.9724C52.8874 45.0919 52.5151 45.1517 52.2117 45.1517C51.6264 45.1517 51.1866 45.026 50.8924 44.7748C50.6013 44.5204 50.4557 44.2093 50.4557 43.8416V41.7684H50.1155C49.8888 41.7684 49.7263 41.7255 49.6283 41.6397C49.5333 41.5508 49.4858 41.4359 49.4858 41.2949C49.4858 41.157 49.5333 41.0452 49.6283 40.9594C49.7263 40.8705 49.8888 40.826 50.1155 40.826H50.4557V39.9756C50.4557 39.7488 50.4986 39.588 50.5844 39.493C50.6733 39.3949 50.7882 39.3459 50.9292 39.3459C51.0671 39.3459 51.1789 39.3949 51.2648 39.493C51.3536 39.588 51.3981 39.7488 51.3981 39.9756V40.826H53.1403C53.3671 40.826 53.5279 40.8705 53.6229 40.9594C53.721 41.0452 53.77 41.1586 53.77 41.2995C53.77 41.4374 53.721 41.5508 53.6229 41.6397C53.5279 41.7255 53.3671 41.7684 53.1403 41.7684H51.3981ZM65.1013 39.0379V44.0576H65.2622C65.4859 44.0576 65.6468 44.1021 65.7449 44.191C65.8429 44.2768 65.892 44.3901 65.892 44.5311C65.892 44.669 65.8429 44.7824 65.7449 44.8713C65.6499 44.9571 65.489 45 65.2622 45H64.159V44.7702C63.9444 44.8958 63.7192 44.9908 63.4832 45.0552C63.2503 45.1195 63.0082 45.1517 62.7569 45.1517C62.049 45.1517 61.479 44.9479 61.0469 44.5403C60.6148 44.1297 60.3987 43.6194 60.3987 43.0096C60.3987 42.3721 60.6255 41.8282 61.0791 41.3777C61.5326 40.9272 62.0858 40.7019 62.7385 40.7019C62.9837 40.7019 63.2243 40.7402 63.4602 40.8169C63.6962 40.8904 63.9291 41.0023 64.159 41.1524V39.9802H63.9981C63.7713 39.9802 63.6089 39.9373 63.5108 39.8515C63.4158 39.7626 63.3683 39.6492 63.3683 39.5113C63.3683 39.3704 63.4158 39.257 63.5108 39.1712C63.6089 39.0823 63.7713 39.0379 63.9981 39.0379H65.1013ZM64.159 43.0371C64.159 42.6479 64.0226 42.3185 63.7498 42.0488C63.4771 41.7791 63.1431 41.6443 62.7477 41.6443C62.3555 41.6443 62.023 41.7791 61.7502 42.0488C61.4775 42.3185 61.3411 42.6433 61.3411 43.0233C61.3411 43.3696 61.4637 43.6547 61.7088 43.8784C61.954 44.099 62.3003 44.2093 62.7477 44.2093C63.1921 44.2093 63.5384 44.099 63.7866 43.8784C64.0348 43.6547 64.159 43.3742 64.159 43.0371ZM68.3973 40.826V41.4144C68.7926 41.1294 69.1037 40.9394 69.3304 40.8444C69.5603 40.7494 69.7748 40.7019 69.974 40.7019C70.2805 40.7019 70.5777 40.8153 70.8658 41.0421C71.0619 41.1953 71.16 41.3516 71.16 41.511C71.16 41.6458 71.1125 41.7607 71.0175 41.8557C70.9256 41.9477 70.8137 41.9936 70.6819 41.9936C70.5655 41.9936 70.4429 41.9354 70.3142 41.819C70.1855 41.7025 70.0705 41.6443 69.9694 41.6443C69.8376 41.6443 69.64 41.727 69.3764 41.8925C69.1159 42.058 68.7895 42.3062 68.3973 42.6372V44.0576H69.7396C69.9663 44.0576 70.1272 44.1021 70.2222 44.191C70.3203 44.2768 70.3693 44.3901 70.3693 44.5311C70.3693 44.669 70.3203 44.7824 70.2222 44.8713C70.1272 44.9571 69.9663 45 69.7396 45H66.8941C66.6673 45 66.5049 44.9571 66.4068 44.8713C66.3118 44.7824 66.2643 44.6675 66.2643 44.5265C66.2643 44.3886 66.3118 44.2768 66.4068 44.191C66.5049 44.1021 66.6673 44.0576 66.8941 44.0576H67.4549V41.7684H67.1147C66.888 41.7684 66.7255 41.7255 66.6275 41.6397C66.5325 41.5508 66.485 41.4359 66.485 41.2949C66.485 41.157 66.5325 41.0452 66.6275 40.9594C66.7255 40.8705 66.888 40.826 67.1147 40.826H68.3973ZM75.0949 45V44.7794C74.8589 44.905 74.5984 44.9985 74.3134 45.0598C74.0284 45.1241 73.7695 45.1563 73.5366 45.1563C73.0309 45.1563 72.6203 45.023 72.3046 44.7564C71.989 44.4867 71.8311 44.1894 71.8311 43.8646C71.8311 43.4692 72.0319 43.103 72.4333 42.7659C72.8378 42.4258 73.3956 42.2557 74.1066 42.2557C74.3916 42.2557 74.721 42.2863 75.0949 42.3476V42.1224C75.0949 41.9814 75.0336 41.8665 74.911 41.7776C74.7915 41.6887 74.5617 41.6443 74.2215 41.6443C73.9426 41.6443 73.581 41.6994 73.1366 41.8098C72.9712 41.8496 72.8424 41.8695 72.7505 41.8695C72.6249 41.8695 72.5176 41.8251 72.4287 41.7362C72.3429 41.6443 72.3 41.5278 72.3 41.3869C72.3 41.3072 72.3153 41.2382 72.346 41.18C72.3766 41.1218 72.4195 41.0758 72.4747 41.0421C72.5299 41.0053 72.6448 40.9624 72.8195 40.9134C73.0524 40.849 73.2899 40.7985 73.532 40.7617C73.7741 40.7218 73.9932 40.7019 74.1893 40.7019C74.7747 40.7019 75.2282 40.8291 75.55 41.0835C75.8748 41.3348 76.0373 41.6795 76.0373 42.1178V44.0576H76.1982C76.4249 44.0576 76.5858 44.1021 76.6808 44.191C76.7789 44.2768 76.8279 44.3901 76.8279 44.5311C76.8279 44.669 76.7789 44.7824 76.6808 44.8713C76.5858 44.9571 76.4249 45 76.1982 45H75.0949ZM75.0949 43.3129C74.718 43.2394 74.3701 43.2026 74.0514 43.2026C73.6683 43.2026 73.3389 43.2961 73.0631 43.483C72.8915 43.6026 72.8057 43.7236 72.8057 43.8462C72.8057 43.9351 72.847 44.0071 72.9298 44.0622C73.083 44.1634 73.2929 44.2139 73.5596 44.2139C73.7863 44.2139 74.0422 44.1695 74.3272 44.0806C74.6153 43.9918 74.8712 43.8707 75.0949 43.7175V43.3129ZM79.894 41.7684V44.0576H81.2363C81.4631 44.0576 81.624 44.1021 81.719 44.191C81.8171 44.2768 81.8661 44.3901 81.8661 44.5311C81.8661 44.669 81.8171 44.7824 81.719 44.8713C81.624 44.9571 81.4631 45 81.2363 45H78.3909C78.1641 45 78.0017 44.9571 77.9036 44.8713C77.8086 44.7824 77.7611 44.6675 77.7611 44.5265C77.7611 44.3886 77.8086 44.2768 77.9036 44.191C78.0017 44.1021 78.1641 44.0576 78.3909 44.0576H78.9517V41.7684H78.5012C78.2744 41.7684 78.112 41.7255 78.0139 41.6397C77.9189 41.5508 77.8714 41.4359 77.8714 41.2949C77.8714 41.157 77.9189 41.0452 78.0139 40.9594C78.112 40.8705 78.2744 40.826 78.5012 40.826H78.9517V40.4675C78.9517 40.0568 79.1049 39.7167 79.4114 39.447C79.7209 39.1742 80.1683 39.0379 80.7536 39.0379C81.0141 39.0379 81.3145 39.0624 81.6546 39.1114C81.9979 39.1574 82.217 39.2233 82.312 39.3091C82.4101 39.3949 82.4591 39.5052 82.4591 39.6401C82.4591 39.7841 82.4162 39.9021 82.3304 39.994C82.2446 40.0829 82.1388 40.1273 82.0132 40.1273C81.955 40.1273 81.8676 40.1166 81.7512 40.0951C81.362 40.0185 81.0172 39.9802 80.7169 39.9802C80.4043 39.9802 80.1882 40.0277 80.0687 40.1227C79.9523 40.2147 79.894 40.3296 79.894 40.4675V40.826H81.3466C81.5734 40.826 81.7343 40.8705 81.8293 40.9594C81.9274 41.0452 81.9764 41.1586 81.9764 41.2995C81.9764 41.4374 81.9274 41.5508 81.8293 41.6397C81.7343 41.7255 81.5734 41.7684 81.3466 41.7684H79.894ZM85.3229 41.7684V43.6577C85.3229 43.86 85.3643 43.9933 85.4471 44.0576C85.5758 44.1588 85.8056 44.2093 86.1366 44.2093C86.6177 44.2093 87.0621 44.1067 87.4697 43.9013C87.626 43.8217 87.7486 43.7818 87.8374 43.7818C87.96 43.7818 88.0657 43.8278 88.1546 43.9197C88.2465 44.0117 88.2925 44.1235 88.2925 44.2553C88.2925 44.3779 88.2435 44.4836 88.1454 44.5725C87.9952 44.7165 87.698 44.8498 87.2536 44.9724C86.8123 45.0919 86.44 45.1517 86.1366 45.1517C85.5512 45.1517 85.1115 45.026 84.8173 44.7748C84.5261 44.5204 84.3806 44.2093 84.3806 43.8416V41.7684H84.0404C83.8136 41.7684 83.6512 41.7255 83.5531 41.6397C83.4581 41.5508 83.4106 41.4359 83.4106 41.2949C83.4106 41.157 83.4581 41.0452 83.5531 40.9594C83.6512 40.8705 83.8136 40.826 84.0404 40.826H84.3806V39.9756C84.3806 39.7488 84.4235 39.588 84.5093 39.493C84.5982 39.3949 84.7131 39.3459 84.8541 39.3459C84.992 39.3459 85.1038 39.3949 85.1896 39.493C85.2785 39.588 85.3229 39.7488 85.3229 39.9756V40.826H87.0651C87.2919 40.826 87.4528 40.8705 87.5478 40.9594C87.6459 41.0452 87.6949 41.1586 87.6949 41.2995C87.6949 41.4374 87.6459 41.5508 87.5478 41.6397C87.4528 41.7255 87.2919 41.7684 87.0651 41.7684H85.3229Z" fill="#333333"/>
<path d="M15.1888 26.5L15.189 22.4999L36.689 1H95.189C97.9504 1 100.189 3.23858 100.189 6V114C100.189 116.761 97.9504 119 95.189 119H20.189C17.4275 119 15.189 116.761 15.189 114V31.5" stroke="#333333" stroke-width="2" stroke-linecap="round"/>
</svg>
