<svg width="137" height="130" viewBox="0 0 137 130" fill="none" xmlns="http://www.w3.org/2000/svg">
<rect x="6.58873" y="11.0624" width="6" height="15.8912" rx="1" transform="rotate(3.7028 6.58873 11.0624)" stroke="#333333" stroke-width="2"/>
<rect x="128.589" y="16.0624" width="6" height="28.0803" rx="1" transform="rotate(3.7028 128.589 16.0624)" stroke="#333333" stroke-width="2"/>
<path d="M94 30.9999C92.5 36.9999 84.4117 46.9999 69.5 46.9999C54.5883 46.9999 45.5 36.4999 43.5 26.9999C62 28.4999 52 27.4999 68.5 28.9999C85 30.4999 80 29.9999 94 30.9999Z" fill="#333333"/>
<path d="M23 59.4999L24.1717 46.2201C24.3566 44.1255 22.8881 42.2454 20.8111 41.9174L20.5195 41.8714C17.4097 41.3804 15.2083 38.5692 15.4772 35.4324L17.9112 7.03573C17.9597 6.47029 18.4685 6.05847 19.0316 6.12886L21.0602 6.38243C21.5873 6.44832 21.9709 6.91482 21.9337 7.44471L20.2065 32.0568C20.0919 33.6901 21.3063 35.1132 22.9378 35.2519C26.8159 35.5817 33.711 36.1578 38.5 36.4999C42 37.9999 44.5 55.4999 65.5 58.4999" stroke="#333333" stroke-width="2" stroke-linecap="round"/>
<path d="M108.283 67.3697L109.56 54.0995C109.761 52.0065 111.549 50.4266 113.651 50.484L113.946 50.4921C117.093 50.578 119.771 48.2169 120.081 45.0838L122.88 16.7208C122.936 16.156 122.511 15.6581 121.945 15.6243L119.904 15.5027C119.374 15.4711 118.911 15.8595 118.851 16.3873L116.048 40.9002C115.862 42.5269 114.408 43.7039 112.779 43.542C108.906 43.1571 102.022 42.4625 97.2508 41.9231C93.5355 42.7577 87.5 59.4999 65.5 58.4999" stroke="#333333" stroke-width="2" stroke-linecap="round"/>
<path d="M1 111.5C4.2 112.7 82.3333 119 121 122" stroke="#333333" stroke-width="2" stroke-linecap="round"/>
<path d="M3.5 111.5C3.5 111.5 3.88229 104.769 4.5 100.5C13.1487 89.0994 15.9247 73.0625 16.7162 66.7275C16.9327 64.9956 17.8028 63.3978 19.1991 62.3506L23 59.4999L97 65.9999" stroke="#333333" stroke-width="2" stroke-linecap="round"/>
<path d="M119 117C119 117 119.126 115.315 119.293 111.005C112.857 98.2241 113.037 81.9497 113.408 75.5762C113.51 73.8338 112.944 72.1046 111.761 70.8214L108.54 67.3284L103.397 66.8878M22 8.99991L118.5 17.4999M22 15.4999L118 23.9999M21 24.9999L116.5 33.4999" stroke="#333333" stroke-width="2" stroke-linecap="round"/>
<path d="M6.5 112.5L7.38445 118.691C7.45169 119.162 7.84104 119.52 8.31567 119.548L15.2349 119.955C15.6863 119.981 16.0994 119.702 16.2423 119.273L18 114" stroke="#333333" stroke-width="2" stroke-linecap="round"/>
<path d="M104 125L104.369 127.213C104.446 127.673 104.831 128.019 105.297 128.047L112.216 128.454C112.676 128.481 113.095 128.19 113.231 127.75L115 122" stroke="#333333" stroke-width="2" stroke-linecap="round"/>
<path d="M5 101L119 111" stroke="#333333" stroke-width="2" stroke-linecap="round"/>
<path d="M13 14.9999H17" stroke="#333333" stroke-width="2" stroke-linecap="round"/>
<path d="M122.419 24.9999L127.5 24.9999" stroke="#333333" stroke-width="2" stroke-linecap="round"/>
<path d="M12.5 23.9999H16.5" stroke="#333333" stroke-width="2" stroke-linecap="round"/>
<path d="M6.5 46.9999L12.5 50.9999" stroke="#333333" stroke-width="2" stroke-linecap="round"/>
<path d="M127.5 57.9999L121.5 61.9999" stroke="#333333" stroke-width="2" stroke-linecap="round"/>
<path d="M1.5 74.7488L8.16661 71.9999" stroke="#333333" stroke-width="2" stroke-linecap="round"/>
<path d="M132.5 85.7488L125.833 82.9999" stroke="#333333" stroke-width="2" stroke-linecap="round"/>
<path d="M121.5 33.8918L127 33.9999" stroke="#333333" stroke-width="2" stroke-linecap="round"/>
<path d="M26 25.9999L25 35.4999" stroke="#333333" stroke-width="2" stroke-linecap="round"/>
<path d="M111.5 32.9999L110.5 42.4999" stroke="#333333" stroke-width="2" stroke-linecap="round"/>
<ellipse cx="16.2147" cy="91.8116" rx="3.21012" ry="1.97768" transform="rotate(15.2293 16.2147 91.8116)" fill="#333333"/>
<ellipse cx="24.6122" cy="92.5244" rx="3.21012" ry="1.97768" transform="rotate(15.2293 24.6122 92.5244)" fill="#333333"/>
<ellipse cx="33.0097" cy="93.2372" rx="3.21012" ry="1.97768" transform="rotate(15.2293 33.0097 93.2372)" fill="#333333"/>
<ellipse cx="41.4072" cy="93.9501" rx="3.21012" ry="1.97768" transform="rotate(15.2293 41.4072 93.9501)" fill="#333333"/>
<ellipse cx="49.8047" cy="94.6629" rx="3.21012" ry="1.97768" transform="rotate(15.2293 49.8047 94.6629)" fill="#333333"/>
<ellipse cx="58.2023" cy="95.3757" rx="3.21012" ry="1.97768" transform="rotate(15.2293 58.2023 95.3757)" fill="#333333"/>
<ellipse cx="66.5997" cy="96.0885" rx="3.21012" ry="1.97768" transform="rotate(15.2293 66.5997 96.0885)" fill="#333333"/>
<ellipse cx="74.9972" cy="96.8013" rx="3.21012" ry="1.97768" transform="rotate(15.2293 74.9972 96.8013)" fill="#333333"/>
<ellipse cx="83.3948" cy="97.5141" rx="3.21012" ry="1.97768" transform="rotate(15.2293 83.3948 97.5141)" fill="#333333"/>
<ellipse cx="91.7922" cy="98.2269" rx="3.21012" ry="1.97768" transform="rotate(15.2293 91.7922 98.2269)" fill="#333333"/>
<ellipse cx="100.19" cy="98.9398" rx="3.21012" ry="1.97768" transform="rotate(15.2293 100.19 98.9398)" fill="#333333"/>
<ellipse cx="108.587" cy="99.6526" rx="3.21012" ry="1.97768" transform="rotate(15.2293 108.587 99.6526)" fill="#333333"/>
<ellipse cx="21.2147" cy="83.8116" rx="3.21012" ry="1.97768" transform="rotate(15.2293 21.2147 83.8116)" fill="#333333"/>
<ellipse cx="29.6122" cy="84.5244" rx="3.21012" ry="1.97768" transform="rotate(15.2293 29.6122 84.5244)" fill="#333333"/>
<ellipse cx="38.0097" cy="85.2372" rx="3.21012" ry="1.97768" transform="rotate(15.2293 38.0097 85.2372)" fill="#333333"/>
<ellipse cx="46.4072" cy="85.9501" rx="3.21012" ry="1.97768" transform="rotate(15.2293 46.4072 85.9501)" fill="#333333"/>
<ellipse cx="54.8047" cy="86.6629" rx="3.21012" ry="1.97768" transform="rotate(15.2293 54.8047 86.6629)" fill="#333333"/>
<ellipse cx="63.2023" cy="87.3757" rx="3.21012" ry="1.97768" transform="rotate(15.2293 63.2023 87.3757)" fill="#333333"/>
<ellipse cx="71.5997" cy="88.0885" rx="3.21012" ry="1.97768" transform="rotate(15.2293 71.5997 88.0885)" fill="#333333"/>
<ellipse cx="79.9972" cy="88.8013" rx="3.21012" ry="1.97768" transform="rotate(15.2293 79.9972 88.8013)" fill="#333333"/>
<ellipse cx="88.3948" cy="89.5141" rx="3.21012" ry="1.97768" transform="rotate(15.2293 88.3948 89.5141)" fill="#333333"/>
<ellipse cx="96.7922" cy="90.2269" rx="3.21012" ry="1.97768" transform="rotate(15.2293 96.7922 90.2269)" fill="#333333"/>
<ellipse cx="105.19" cy="90.9398" rx="3.21012" ry="1.97768" transform="rotate(15.2293 105.19 90.9398)" fill="#333333"/>
<ellipse cx="26.2147" cy="75.8116" rx="3.21012" ry="1.97768" transform="rotate(15.2293 26.2147 75.8116)" fill="#333333"/>
<ellipse cx="34.6122" cy="76.5244" rx="3.21012" ry="1.97768" transform="rotate(15.2293 34.6122 76.5244)" fill="#333333"/>
<ellipse cx="43.0097" cy="77.2372" rx="3.21012" ry="1.97768" transform="rotate(15.2293 43.0097 77.2372)" fill="#333333"/>
<ellipse cx="51.4072" cy="77.9501" rx="3.21012" ry="1.97768" transform="rotate(15.2293 51.4072 77.9501)" fill="#333333"/>
<ellipse cx="59.8047" cy="78.6629" rx="3.21012" ry="1.97768" transform="rotate(15.2293 59.8047 78.6629)" fill="#333333"/>
<ellipse cx="68.2023" cy="79.3757" rx="3.21012" ry="1.97768" transform="rotate(15.2293 68.2023 79.3757)" fill="#333333"/>
<ellipse cx="76.5997" cy="80.0885" rx="3.21012" ry="1.97768" transform="rotate(15.2293 76.5997 80.0885)" fill="#333333"/>
<ellipse cx="84.9972" cy="80.8013" rx="3.21012" ry="1.97768" transform="rotate(15.2293 84.9972 80.8013)" fill="#333333"/>
<ellipse cx="93.3948" cy="81.5141" rx="3.21012" ry="1.97768" transform="rotate(15.2293 93.3948 81.5141)" fill="#333333"/>
<ellipse cx="101.792" cy="82.2269" rx="3.21012" ry="1.97768" transform="rotate(15.2293 101.792 82.2269)" fill="#333333"/>
<ellipse cx="31.2147" cy="67.8116" rx="3.21012" ry="1.97768" transform="rotate(15.2293 31.2147 67.8116)" fill="#333333"/>
<ellipse cx="39.6122" cy="68.5244" rx="3.21012" ry="1.97768" transform="rotate(15.2293 39.6122 68.5244)" fill="#333333"/>
<ellipse cx="48.0097" cy="69.2372" rx="3.21012" ry="1.97768" transform="rotate(15.2293 48.0097 69.2372)" fill="#333333"/>
<ellipse cx="56.4072" cy="69.9501" rx="3.21012" ry="1.97768" transform="rotate(15.2293 56.4072 69.9501)" fill="#333333"/>
<ellipse cx="64.8047" cy="70.6629" rx="3.21012" ry="1.97768" transform="rotate(15.2293 64.8047 70.6629)" fill="#333333"/>
<ellipse cx="73.2023" cy="71.3757" rx="3.21012" ry="1.97768" transform="rotate(15.2293 73.2023 71.3757)" fill="#333333"/>
<ellipse cx="81.5997" cy="72.0885" rx="3.21012" ry="1.97768" transform="rotate(15.2293 81.5997 72.0885)" fill="#333333"/>
<ellipse cx="89.9972" cy="72.8013" rx="3.21012" ry="1.97768" transform="rotate(15.2293 89.9972 72.8013)" fill="#333333"/>
<ellipse cx="98.3948" cy="73.5141" rx="3.21012" ry="1.97768" transform="rotate(15.2293 98.3948 73.5141)" fill="#333333"/>
</svg>
